<svg width="252" height="121" viewBox="0 0 252 121" fill="none" xmlns="http://www.w3.org/2000/svg">
<path d="M48.4512 0C55.4428 0 61.8751 1.21199 67.748 3.63574C73.6675 6.05949 78.7951 9.43869 83.1299 13.7734C87.5111 18.1081 90.8905 23.1885 93.2676 29.0146C95.6913 34.7944 96.9033 41.041 96.9033 47.7529C96.9033 54.5113 95.7377 60.8037 93.4072 66.6299C91.0767 72.4095 87.7439 77.4898 83.4092 81.8711C79.1211 86.2058 74.0171 89.585 68.0977 92.0088C66.2392 92.7698 64.3185 93.4115 62.3359 93.9336C63.1103 94.1317 63.8658 94.3283 64.6016 94.5264C67.0718 95.1789 69.7054 95.5049 72.502 95.5049C75.112 95.5049 77.5126 95.1788 79.7031 94.5264C81.9404 93.9204 83.7589 93.2675 85.1572 92.5684C86.602 91.8227 87.4181 91.3099 87.6045 91.0303L96.1338 108.369C94.549 111.306 91.7289 113.986 87.6738 116.41C83.6188 118.88 78.6777 120.115 72.8516 120.115C69.2627 120.115 66.233 119.695 63.7627 118.856C61.339 118.017 59.0552 117.039 56.9111 115.92C54.8138 114.801 52.4832 113.823 49.9199 112.984C47.403 112.145 44.2331 111.726 40.4111 111.726C37.5215 111.726 35.0043 112.098 32.8604 112.844C30.7629 113.636 29.1311 114.429 27.9658 115.222C26.8007 116.014 26.1713 116.503 26.0781 116.689L15.6611 104.244C18.4578 100.609 22.5592 97.5789 27.9658 95.1553C29.4627 94.5028 31.0106 93.9402 32.6094 93.4668C31.189 93.0427 29.804 92.5568 28.4551 92.0088C22.5357 89.5851 17.4553 86.2058 13.2139 81.8711C8.97239 77.4898 5.70969 72.4095 3.42578 66.6299C1.14192 60.8037 5.22377e-05 54.5113 0 47.7529C0 41.041 1.21102 34.7944 3.63477 29.0146C6.10512 23.1884 9.53174 18.1082 13.9131 13.7734C18.2944 9.4388 23.4212 6.05946 29.2939 3.63574C35.2135 1.212 41.5994 4.30727e-06 48.4512 0ZM141.66 62.1143V24.3965H157.962V80H135.805L118.998 41.9873V80H102.696V24.3965H124.727L141.66 62.1143ZM183.145 65.8467H202.143V80H166.801V24.3965H183.145V65.8467ZM232.489 24.3965C236.112 24.3965 239.384 25.071 242.305 26.4189C245.225 27.7388 247.542 29.7048 249.255 32.3164C250.996 34.928 251.866 38.129 251.866 41.9199C251.866 45.7111 250.996 48.9833 249.255 51.7354C247.542 54.4592 245.225 56.5654 242.305 58.0537C239.384 59.514 236.112 60.2441 232.489 60.2441H225.497V80H209.195V24.3965H232.489ZM48.4512 25.1699C44.3961 25.1699 40.8539 26.1953 37.8242 28.2461C34.7946 30.2969 32.4407 33.0234 30.7627 36.4258C29.0847 39.8283 28.2451 43.6046 28.2451 47.7529C28.2452 51.901 29.0848 55.6994 30.7627 59.1484C32.4407 62.551 34.7945 65.2782 37.8242 67.3291C40.8538 69.3332 44.3962 70.335 48.4512 70.335C52.5529 70.335 56.1188 69.3333 59.1484 67.3291C62.1781 65.2782 64.532 62.551 66.21 59.1484C67.8878 55.6995 68.7265 51.901 68.7266 47.7529C68.7266 43.6046 67.8879 39.8283 66.21 36.4258C64.532 33.0234 62.178 30.2969 59.1484 28.2461C56.1188 26.1952 52.5529 25.1699 48.4512 25.1699ZM225.497 47.5645H227.94C229.176 47.5644 230.271 47.3965 231.226 47.0596C232.208 46.6945 232.981 46.1323 233.543 45.374C234.104 44.5878 234.385 43.5771 234.385 42.3418C234.385 41.1062 234.105 40.1088 233.543 39.3506C232.981 38.5643 232.208 37.9891 231.226 37.624C230.271 37.259 229.176 37.0762 227.94 37.0762H225.497V47.5645Z" fill="url(#paint0_linear_11_2)"/>
<defs>
<linearGradient id="paint0_linear_11_2" x1="125.933" y1="-6.60343e-07" x2="136.5" y2="120" gradientUnits="userSpaceOnUse">
<stop/>
<stop offset="1" stop-color="#2E2E2E"/>
</linearGradient>
</defs>
</svg>
